<?xml version="1.0" encoding="UTF-8" standalone="no"?>
<svg
   height="2419"
   viewBox="31.98258924 32.28452272 135.54499681 132.49547728"
   width="2500"
   version="1.1"
   id="svg4"
   sodipodi:docname="git_bash_here.svg"
   inkscape:version="1.4.2 (f4327f4, 2025-05-13)"
   xmlns:inkscape="http://www.inkscape.org/namespaces/inkscape"
   xmlns:sodipodi="http://sodipodi.sourceforge.net/DTD/sodipodi-0.dtd"
   xmlns="http://www.w3.org/2000/svg"
   xmlns:svg="http://www.w3.org/2000/svg">
  <defs
     id="defs4" />
  <sodipodi:namedview
     id="namedview4"
     pagecolor="#ffffff"
     bordercolor="#000000"
     borderopacity="0.25"
     inkscape:showpageshadow="2"
     inkscape:pageopacity="0.0"
     inkscape:pagecheckerboard="0"
     inkscape:deskcolor="#d1d1d1"
     inkscape:zoom="0.17117012"
     inkscape:cx="791.61013"
     inkscape:cy="820.82083"
     inkscape:window-width="2400"
     inkscape:window-height="1261"
     inkscape:window-x="2391"
     inkscape:window-y="-9"
     inkscape:window-maximized="1"
     inkscape:current-layer="svg4" />
  <g
     id="g10"
     style="display:none">
    <path
       d="M 95.72,81.45 V 94 l -30.11,-30.1 10,-10 15.19,15.2 a 9.75,9.75 0 0 0 -0.61,3.43 9.91,9.91 0 0 0 5.53,8.92 z m 9.23,1.81 4.68,4.68 -4.68,4.69 z M 133.59,64 115.5,82.07 109.41,76 a 9.83,9.83 0 0 0 0.54,-4.67 10,10 0 0 0 -9.39,-8.68 9.64,9.64 0 0 0 -3.89,0.6 L 81.47,48 94.35,35.16 a 7.36,7.36 0 0 1 10.42,0 z"
       fill="#ff8080"
       id="path1" />
    <path
       d="M 89.74,105.53 62.38,132.89 35.23,106 a 8.49,8.49 0 0 1 0.09,-11.86 l 28,-28 26.42,26.51 a 9.12,9.12 0 0 1 0,12.88 z"
       fill="#80b3ff"
       id="path2" />
    <path
       d="m 105,108.79 v 11.49 a 9.46,9.46 0 0 1 4.46,9.88 9.32,9.32 0 0 1 -7.42,7.53 A 9.47,9.47 0 0 1 95.72,120 v -12.7 a 1,1 0 0 0 -1.63,-0.68 l -28.67,28.66 29.5,29.5 a 7.33,7.33 0 0 0 10.36,0 L 133.11,137 Z"
       fill="#ffe680"
       id="path3" />
    <path
       d="M 163.54,107.45 137,134 108.42,105.42 a 8.56,8.56 0 0 1 0,-12.1 L 111.71,90 119,97.27 a 9.92,9.92 0 1 0 5.88,-5.88 L 117.63,84.15 136.17,65.62 163.54,93 a 10.19,10.19 0 0 1 0,14.45 z"
       fill="#8dd35f"
       id="path4" />
  </g>
  <g
     fill="#ffffff"
     transform="matrix(0.14724592,0,0,0.14724592,24.365177,22.774236)"
     id="g4"
     style="display:none">
    <path
       d="m 918.99988,706.00025 -133.99997,12.00005 -4.99996,68.99975 c -1.33334,6.66667 -6.00019,10.99976 -14.00019,12.99976 l -161.99961,11.00035 c -8,0 -13.33364,-3.66702 -16.00031,-11.00035 l -9.99992,-64.9995 H 446.00008 l -9.99993,64.9995 c -2.66666,7.33333 -8.00031,11.00035 -16.00031,11.00035 L 258.00023,799.99981 c -8,-2 -12.66685,-6.33309 -14.00018,-12.99976 L 239.00009,718.0003 105.00011,706.00025 c 271.33334,236 542.66644,236 813.99977,0 z"
       style="fill:#478cbf"
       id="path29" />
    <path
       d="m 918.99988,706.00025 c -271.33333,236 -542.66643,236 -813.99977,0 v 38.99999 c 0,275.99996 812.99977,275.99996 813.99977,0 z"
       style="fill:#478cbf"
       id="path28" />
    <path
       d="M 918.99988,672.99993 H 105.00011 l 151.99969,14.00018 c 8,0.66666 12.99989,5.33351 14.99989,14.00018 l 4.00026,66.99962 131.99984,9.99992 8.00052,-60.99996 c 1.33333,-7.33333 6.33322,-12.33321 14.99988,-14.99988 H 592.9998 c 8.66667,2.66667 13.66655,7.66655 14.99989,14.99988 l 8.00051,60.99996 131.99985,-9.99992 4.00026,-66.99962 c 2,-8.66667 6.99988,-13.33352 14.99988,-14.00018 z"
       style="fill:#478cbf"
       id="path27" />
    <path
       d="m 417.00001,76.99977 c -42.66667,9.333334 -83.66702,23.33388 -123.00035,42.00055 0.66667,34 3.33385,67.99935 8.00052,101.99935 -32,18 -61.33323,39.33385 -87.9999,64.00052 -26,-18 -53.33356,-33.66718 -82.00023,-47.00051 -32,32.66667 -59.666602,68.66713 -82.999935,108.00047 17.333333,28 36,54.9998 55.999995,80.9998 V 672.99993 H 918.99988 V 426.99995 c 20,-26 38.66667,-52.9998 56,-80.9998 -23.33333,-39.33334 -50.99994,-75.3338 -82.99994,-108.00047 -28.66666,13.33333 -56.00023,29.00051 -82.00023,47.00051 -26.66667,-24.66667 -55.99989,-46.00052 -87.99989,-64.00052 4.66666,-34 7.33385,-67.99935 8.00051,-101.99935 C 690.667,100.33365 649.66665,86.333104 606.99998,76.99977 c -17.33333,28.66667 -32.66674,58.33366 -46.00007,89.00032 -32.66667,-4.66666 -65.33316,-4.66666 -97.99982,0 -13.33334,-30.66666 -28.66675,-60.33365 -46.00008,-89.00032 z"
       style="fill:#478cbf"
       id="path25" />
  </g>
  <g
     id="g9"
     style="display:inline">
    <path
       d="m 104.94995,83.259949 v 9.370005 l 4.68008,-4.689924 z"
       style="fill:#ff8080"
       id="path24" />
    <path
       d="M 61.660691,59.952077 95.719977,94.000024 V 81.449985 c -3.395706,-1.673092 -5.541653,-5.13446 -5.530023,-8.919948 -0.0042,-1.170683 0.202491,-2.332602 0.610097,-3.430042 L 67.907254,46.192222 c 0.200075,3.041112 0.508809,6.082201 0.926217,9.123313 -2.501582,1.40714 -4.892551,2.952711 -7.17278,4.636542 z"
       style="fill:#ff8080"
       id="path23" />
    <path
       d="m 137.73031,59.864248 c -2.24433,-1.6498 -4.59555,-3.166059 -7.05361,-4.548713 0.68715,-5.006361 1.07988,-10.012627 1.17805,-15.018988 -5.79167,-2.748591 -11.82881,-4.810114 -18.1113,-6.184409 -2.55226,4.22105 -4.81005,8.589393 -6.77333,13.104935 -4.81003,-0.687148 -9.620035,-0.687148 -14.430069,0 -1.963278,-4.515542 -4.221062,-8.883885 -6.773324,-13.104935 -4.757146,1.040626 -9.37356,2.475245 -13.849289,4.303839 L 96.670051,63.25 c 1.241603,-0.465402 2.565809,-0.6697 3.889939,-0.60004 4.81266,0.252684 8.76049,3.902004 9.39001,8.679996 0.20036,1.57743 0.015,3.179946 -0.54002,4.670025 l 6.09005,6.070049 z"
       style="fill:#ff8080"
       id="path15" />
    <path
       d="m 47.178733,148.0913 42.561271,-42.56127 c 3.549846,-3.55956 3.549846,-9.320515 0,-12.880071 L 59.118354,61.924113 c -1.109079,0.903143 -2.189868,1.841545 -3.242508,2.815237 -3.828394,-2.650426 -7.85315,-4.957354 -12.0742,-6.920632 -4.71187,4.810034 -8.785664,10.110955 -12.221402,15.902628 2.552263,4.122886 5.300853,8.098497 8.245771,11.926891 v 36.222493 4.85916 5.74259 c 0,6.1313 2.724793,11.33756 7.352718,15.61882 z"
       style="fill:#80b3ff"
       id="path21" />
    <path
       d="m 147.69437,151.63623 -42.69436,-42.84626 v 11.48999 c 3.41323,2.0306 5.19471,5.97704 4.46003,9.88008 -0.6729,3.80564 -3.62469,6.80115 -7.42001,7.52998 -4.653005,1.01675 -9.337199,-1.58051 -10.939584,-6.06566 C 89.49806,127.1392 91.476051,122.1618 95.719977,120 v -12.70002 c -0.07457,-0.79792 -1.010502,-1.18831 -1.630026,-0.67995 l -43.930913,43.91561 c 22.129959,16.18022 74.000782,16.54713 97.535332,1.10059 z"
       style="fill:#ffe680"
       id="path19" />
    <path
       d="m 140.10244,61.689723 -22.47247,22.460284 7.25001,7.239963 c 9.98582,-3.678066 17.95905,8.80369 10.4414,16.32134 -7.51765,7.51765 -19.99941,-0.45546 -16.32134,-10.441284 l -7.29003,-7.270024 -3.29001,3.319961 c -3.33911,3.342239 -3.33911,8.757847 0,12.100087 l 43.23095,43.23096 c 5.02061,-4.38464 8.01002,-9.77747 8.03321,-16.17853 v -5.74259 -4.85916 -36.222493 c 2.94492,-3.828394 5.69351,-7.804005 8.24577,-11.926891 -3.43574,-5.791673 -7.50953,-11.092594 -12.2214,-15.902628 -4.22105,1.963278 -8.24581,4.270206 -12.0742,6.920632 -1.144,-1.058195 -2.32123,-2.074756 -3.53189,-3.049627 z"
       style="fill:#8dd35f"
       id="path17" />
  </g>
  <path
     d="m 918.99988,672.99993 -151.99969,14.00018 c -8,0.66666 -12.99988,5.33351 -14.99988,14.00018 l -4.00026,66.99962 -131.99985,9.99992 -8.00051,-60.99996 c -1.33334,-7.33333 -6.33322,-12.33321 -14.99989,-14.99988 H 431.00019 c -8.66666,2.66667 -13.66655,7.66655 -14.99988,14.99988 l -8.00052,60.99996 -131.99984,-9.99992 -4.00026,-66.99962 c -2,-8.66667 -6.99989,-13.33352 -14.99989,-14.00018 L 105.00011,672.99993 v 33.00032 l 133.99998,12.00005 4.99996,68.99975 c 1.33333,6.66667 6.00018,10.99976 14.00018,12.99976 l 161.99961,11.00035 c 8,0 13.33365,-3.66702 16.00031,-11.00035 l 9.99993,-64.9995 h 131.99984 l 9.99992,64.9995 c 2.66667,7.33333 8.00031,11.00035 16.00031,11.00035 l 161.99961,-11.00035 c 8,-2 12.66685,-6.33309 14.00019,-12.99976 l 4.99996,-68.99975 133.99997,-12.00005 z"
     id="path26"
     transform="matrix(0.14724592,0,0,0.14724592,24.365177,22.774236)"
     style="fill:#939393;fill-opacity:1" />
  <path
     d="m 483,600 c 0,34 58,34 58,0 v -86 c 0,-34 -58,-34 -58,0 z"
     id="path3-4"
     transform="matrix(0.14724592,0,0,0.14724592,24.365177,22.774236)"
     style="fill:#939393;fill-opacity:1" />
  <circle
     cx="725"
     cy="526"
     r="90"
     id="circle3"
     transform="matrix(0.14724592,0,0,0.14724592,24.365177,22.774236)"
     style="fill:#939393;fill-opacity:1" />
  <circle
     cx="299"
     cy="526"
     r="90"
     id="circle4"
     transform="matrix(0.14724592,0,0,0.14724592,24.365177,22.774236)"
     style="fill:#939393;fill-opacity:1" />
</svg>
